name Walk7.mot
datacolumns 19
datarows 12
range 3.58500000 3.64000000
endheader

                time	   L_ground_force_vx	   L_ground_force_vy	   L_ground_force_vz	   L_ground_force_px	   L_ground_force_py	   L_ground_force_pz	   R_ground_force_vx	   R_ground_force_vy	   R_ground_force_vz	   R_ground_force_px	   R_ground_force_py	   R_ground_force_pz	   L_ground_torque_x	   L_ground_torque_y	   L_ground_torque_z	   R_ground_torque_x	   R_ground_torque_y	   R_ground_torque_z	
          3.58500000	         -0.00000000	         -0.00000000	         -0.00000000	          0.00000000	          0.00000000	          0.00000000	         13.12650314	        101.64004075	          4.11941841	          0.35363705	          0.00000000	          0.08472109	          0.00000000	         -0.00000000	          0.00000000	          0.00000000	         -4.57209516	          0.00000000	
          3.59000000	         -0.00000000	         -0.00000000	         -0.00000000	          0.00000000	          0.00000000	          0.00000000	          9.14121621	         78.17996430	          2.95706074	          0.33074564	          0.00000000	          0.07874264	          0.00000000	         -0.00000000	          0.00000000	          0.00000000	         -3.66548654	          0.00000000	
          3.59500000	          0.00000000	         -0.00000000	         -0.00000000	          0.00000000	          0.00000000	          0.00000000	          5.82202653	         57.95684797	          1.93479175	          0.30117053	          0.00000000	          0.07127393	          0.00000000	         -0.00000000	          0.00000000	          0.00000000	         -2.84532465	          0.00000000	
          3.60000000	          0.00000000	          0.00000000	         -0.00000000	          0.00000000	          0.00000000	          0.00000000	          3.19381127	         40.89533179	          1.09646462	          0.26520179	          0.00000000	          0.06240517	          0.00000000	         -0.00000000	          0.00000000	          0.00000000	         -2.12091633	          0.00000000	
          3.60500000	          0.00000000	          0.00000000	          0.00000000	          0.00000000	          0.00000000	          0.00000000	          1.23546542	         26.88989470	          0.45911305	          0.22412101	          0.00000000	          0.05246284	          0.00000000	         -0.00000000	          0.00000000	          0.00000000	         -1.49836957	          0.00000000	
          3.61000000	          0.00000000	          0.00000000	          0.00000000	          0.00000000	          0.00000000	          0.00000000	         -0.12199499	         15.80740059	          0.01182437	          0.18062005	          0.00000000	          0.04207073	          0.00000000	         -0.00000000	          0.00000000	          0.00000000	         -0.98214635	          0.00000000	
          3.61500000	          0.00000000	          0.00000000	          0.00000000	          0.00000000	          0.00000000	          0.00000000	         -0.98292655	          7.45062147	         -0.27598512	          0.13844983	          0.00000000	          0.03208177	          0.00000000	         -0.00000000	          0.00000000	          0.00000000	         -0.57344929	          0.00000000	
          3.62000000	          0.00000000	          0.00000000	          0.00000000	         -0.00000000	          0.00000000	         -0.00000000	         -1.45728768	          1.50232683	         -0.43872467	          0.10045718	          0.00000000	          0.02313876	          0.00000000	          0.00000000	          0.00000000	          0.00000000	         -0.26600687	          0.00000000	
          3.62500000	          0.00000000	          0.00000000	          0.00000000	         -0.00000000	          0.00000000	         -0.00000000	         -1.64623245	         -2.43101517	         -0.50838858	          0.06814828	          0.00000000	          0.01557379	          0.00000000	          0.00000000	          0.00000000	          0.00000000	         -0.04781208	          0.00000000	
          3.63000000	          0.00000000	          0.00000000	          0.00000000	         -0.00000000	          0.00000000	         -0.00000000	         -1.63720199	         -4.76112730	         -0.51285531	          0.04203951	          0.00000000	          0.00949082	          0.00000000	          0.00000000	          0.00000000	          0.00000000	          0.09589337	          0.00000000	
          3.63500000	          0.00000000	          0.00000000	          0.00000000	         -0.00000000	          0.00000000	         -0.00000000	         -1.50192804	         -5.87883546	         -0.47515908	          0.02197164	          0.00000000	          0.00483932	          0.00000000	          0.00000000	          0.00000000	          0.00000000	          0.18046488	          0.00000000	
          3.64000000	          0.00000000	          0.00000000	          0.00000000	         -0.00000000	          0.00000000	         -0.00000000	         -1.29639514	         -6.13065526	         -0.41340588	          0.00736481	          0.00000000	          0.00147367	          0.00000000	          0.00000000	          0.00000000	          0.00000000	          0.22042637	          0.00000000	
